<?xml version="1.0" encoding="utf-8"?>
<!-- Generator: Adobe Illustrator 16.0.0, SVG Export Plug-In . SVG Version: 6.00 Build 0)  -->
<!DOCTYPE svg PUBLIC "-//W3C//DTD SVG 1.1//EN" "http://www.w3.org/Graphics/SVG/1.1/DTD/svg11.dtd">
<svg version="1.1" id="Layer_2" xmlns="http://www.w3.org/2000/svg" xmlns:xlink="http://www.w3.org/1999/xlink" x="0px" y="0px"
	 width="370.784px" height="379.724px" viewBox="0 0 370.784 379.724" enable-background="new 0 0 370.784 379.724"
	 xml:space="preserve">
<polygon fill="#FFFFFF" points="58.756,179.233 70.843,173.2 84.733,86.84 70.058,94.261 "/>
<polygon fill="#FFFFFF" points="312.027,179.233 299.678,173.073 286.05,86.84 302.059,96.84 "/>
<path fill="#FFFFFF" d="M206.593,11.146c0.83,13.194-9.547,13.194-21.256,13.194c-11.708,0-21.976-2.833-21.146-13.194
	c0.403-5.032,9.492-9.14,21.201-9.14C197.101,2.006,206.275,6.108,206.593,11.146z"/>
<polygon fill="#2B59C3" points="302.079,94.261 286.05,86.84 185.392,82.84 84.733,86.84 70.058,94.261 71.928,61.944 
	112.392,58.173 185.444,56.465 268.224,57.839 299.471,61.944 "/>
<polyline fill="none" stroke="#193F8E" stroke-width="4" stroke-linecap="round" stroke-linejoin="bevel" stroke-miterlimit="10" points="
	58.313,181.674 68.725,96.84 84.733,86.84 "/>
<rect x="146.355" y="34.506" fill="#2B59C3" width="77.771" height="12.75"/>
<line display="none" fill="none" stroke="#003FA5" stroke-width="3" stroke-miterlimit="10" x1="185.392" y1="379.724" x2="185.392" y2="127.506"/>
<polyline fill="#FFFFFF" stroke="#193F8E" stroke-width="4" stroke-linejoin="round" stroke-miterlimit="10" points="
	185.444,176.006 70.843,173.2 84.733,86.84 156.725,82.84 185.392,82.84 "/>
<path fill="#FFFFFF" stroke="#193F8E" stroke-width="4" stroke-miterlimit="10" d="M84.308,168.866c0,0,4.402-60.077,8.388-66.86
	c5.196-8.841,46.218-9.399,51.446-5.25c5.536,4.394,0.25,48.254,0.25,48.254"/>
<polyline fill="none" stroke="#193F8E" stroke-width="4" stroke-linecap="round" stroke-miterlimit="10" points="312.892,182.756 
	302.059,96.84 286.05,86.84 "/>
<polyline fill="#FFFFFF" stroke="#193F8E" stroke-width="4" stroke-linejoin="round" stroke-miterlimit="10" points="
	185.444,176.006 299.678,173.073 286.05,86.84 214.059,82.84 180.725,82.84 "/>
<path fill="#FFFFFF" stroke="#193F8E" stroke-width="4" stroke-miterlimit="10" d="M286.892,168.866c0,0-4.818-60.077-8.804-66.86
	c-5.196-8.841-46.218-9.399-51.446-5.25c-5.535,4.394,0.084,48.254,0.084,48.254"/>
<path fill="none" stroke="#193F8E" stroke-width="4" stroke-miterlimit="10" d="M185.444,32.631c0,0-37.553-0.125-39.089,1.875
	c-1.942,2.529-1.589,10.625,0.302,12.75c1.255,1.41,38.652,1.25,38.652,1.25l0.135,7.958c0,0-106.714-0.76-113.517,5.479
	c-3.703,3.396-3.203,34.896-3.203,34.896"/>
<path fill="none" stroke="#193F8E" stroke-width="4" stroke-miterlimit="10" d="M185.336,24.34l10.555-0.333
	c0,0,8.175-1.505,9.871-3.5c2.34-2.751,2.084-11.496,0-14.445c-3.109-4.4-20.371-4.055-20.371-4.055s-17.261-0.345-20.371,4.055
	c-2.084,2.949-2.339,11.694,0,14.445c1.696,1.995,9.871,3.5,9.871,3.5L185.336,24.34"/>
<path fill="none" stroke="#193F8E" stroke-width="4" stroke-miterlimit="10" d="M302.059,96.84c0,0,0.5-31.5-3.202-34.896
	c-6.803-6.239-113.412-5.479-113.412-5.479l-0.135-7.958c0,0,37.563,0.16,38.816-1.25c1.891-2.125,2.244-10.221,0.303-12.75
	c-1.537-2-38.984-1.875-38.984-1.875"/>
<path fill="#FFFFFF" stroke="#193F8E" stroke-width="4.4585" stroke-miterlimit="10" d="M157.082,140.173
	c0,0,0.716-43.368,5.761-44.426c17.264-3.622,28.206-3.798,45.201,0c5.029,1.124,5.762,44.426,5.762,44.426"/>
<path fill="#2B59C3" d="M185.392,379.724l147.064-38.578c0,0,48.803-56.827,36.27-115.64c-3.076-14.428-27.047-30.954-56.698-46.273
	c-53.923-27.859-126.636-51.727-126.636-51.727l-8.537,2.893v247.086L185.392,379.724z"/>
<path fill="#193F8E" d="M185.392,379.724L38.328,341.146c0,0-48.804-56.827-36.269-115.64c3.075-14.428,27.046-30.954,56.698-46.273
	c53.923-27.859,126.635-51.727,126.635-51.727V379.724z"/>
<line display="none" fill="none" stroke="#2B53A3" stroke-width="7" stroke-linecap="round" stroke-miterlimit="10" x1="185.336" y1="-0.556" x2="185.336" y2="-18.119"/>
<line fill="none" stroke="#193F8E" stroke-width="7" stroke-linecap="square" stroke-miterlimit="10" x1="185.336" y1="31.131" x2="185.34" y2="25.819"/>
<line fill="none" stroke="#193F8E" stroke-width="7" stroke-miterlimit="10" x1="185.31" y1="55.881" x2="185.31" y2="49.42"/>
</svg>
